<svg xmlns="http://www.w3.org/2000/svg" width="100" height="100" viewBox="0 0 100 100">
  <!-- 背景圆 -->
  <circle cx="50" cy="50" r="45" fill="#0d6efd" />
  <circle cx="50" cy="50" r="40" fill="#ffffff" />
  <circle cx="50" cy="50" r="36" fill="#0d6efd" />
  
  <!-- 计算器显示屏 -->
  <rect x="30" y="25" width="40" height="15" rx="2" ry="2" fill="#e8e8e8" stroke="#ffffff" stroke-width="1" />
  
  <!-- 计算器按钮 -->
  <rect x="30" y="45" width="8" height="8" rx="1" ry="1" fill="#ffffff" />
  <rect x="42" y="45" width="8" height="8" rx="1" ry="1" fill="#ffffff" />
  <rect x="54" y="45" width="8" height="8" rx="1" ry="1" fill="#ffffff" />
  
  <rect x="30" y="57" width="8" height="8" rx="1" ry="1" fill="#ffffff" />
  <rect x="42" y="57" width="8" height="8" rx="1" ry="1" fill="#ffffff" />
  <rect x="54" y="57" width="8" height="8" rx="1" ry="1" fill="#ffffff" />
  
  <rect x="30" y="69" width="8" height="8" rx="1" ry="1" fill="#ffffff" />
  <rect x="42" y="69" width="8" height="8" rx="1" ry="1" fill="#ffffff" />
  <rect x="54" y="69" width="8" height="8" rx="1" ry="1" fill="#ffce67" />
  
  <!-- AI 符号 -->
  <text x="62" y="32" font-family="Arial" font-size="8" font-weight="bold" fill="#ffffff">AI</text>
  
  <!-- 数字 -->
  <text x="32.5" y="51" font-family="Arial" font-size="6" font-weight="bold" fill="#0d6efd">7</text>
  <text x="44.5" y="51" font-family="Arial" font-size="6" font-weight="bold" fill="#0d6efd">8</text>
  <text x="56.5" y="51" font-family="Arial" font-size="6" font-weight="bold" fill="#0d6efd">9</text>
  
  <text x="32.5" y="63" font-family="Arial" font-size="6" font-weight="bold" fill="#0d6efd">4</text>
  <text x="44.5" y="63" font-family="Arial" font-size="6" font-weight="bold" fill="#0d6efd">5</text>
  <text x="56.5" y="63" font-family="Arial" font-size="6" font-weight="bold" fill="#0d6efd">6</text>
  
  <text x="32.5" y="75" font-family="Arial" font-size="6" font-weight="bold" fill="#0d6efd">1</text>
  <text x="44.5" y="75" font-family="Arial" font-size="6" font-weight="bold" fill="#0d6efd">2</text>
  <text x="56.5" y="75" font-family="Arial" font-size="6" font-weight="bold" fill="#0d6efd">3</text>
</svg> 